HIERARCHY
ROOT SimulationBone
{
	OFFSET 0.000000 0.000000 0.000000
	CHANNELS 6 Xposition Yposition Zposition Zrotation Yrotation Xrotation 
	JOINT Hips
	{
		OFFSET 0.000000 0.000000 0.000000
		CHANNELS 6 Xposition Yposition Zposition Zrotation Yrotation Xrotation 
		JOINT LeftUpLeg
		{
			OFFSET 0.103456 1.857832 10.548506
			CHANNELS 3 Zrotation Yrotation Xrotation
			JOINT LeftLeg
			{
				OFFSET 43.499996 -0.000050 0.000004
				CHANNELS 3 Zrotation Yrotation Xrotation
				JOINT LeftFoot
				{
					OFFSET 42.372196 0.000023 -0.000001
					CHANNELS 3 Zrotation Yrotation Xrotation
					JOINT LeftToe
					{
						OFFSET 17.299999 -0.000001 0.000005
						CHANNELS 3 Zrotation Yrotation Xrotation
						End Site
						{
							OFFSET 0.000000 0.000000 0.000000
						}
					}
				}
			}
		}
		JOINT RightUpLeg
		{
			OFFSET 0.103461 1.857838 -10.548502
			CHANNELS 3 Zrotation Yrotation Xrotation
			JOINT RightLeg
			{
				OFFSET 43.500053 -0.000023 0.000017
				CHANNELS 3 Zrotation Yrotation Xrotation
				JOINT RightFoot
				{
					OFFSET 42.372261 -0.000019 0.000013
					CHANNELS 3 Zrotation Yrotation Xrotation
					JOINT RightToe
					{
						OFFSET 17.299999 -0.000002 0.000004
						CHANNELS 3 Zrotation Yrotation Xrotation
						End Site
						{
							OFFSET 0.000000 0.000000 0.000000
						}
					}
				}
			}
		}
		JOINT Spine
		{
			OFFSET 6.901962 -2.603720 0.000005
			CHANNELS 3 Zrotation Yrotation Xrotation
			JOINT Spine1
			{
				OFFSET 12.588104 -0.000017 -0.000004
				CHANNELS 3 Zrotation Yrotation Xrotation
				JOINT Spine2
				{
					OFFSET 12.343203 0.000008 0.000001
					CHANNELS 3 Zrotation Yrotation Xrotation
					JOINT Neck
					{
						OFFSET 25.832893 0.000002 -0.000003
						CHANNELS 3 Zrotation Yrotation Xrotation
						JOINT Head
						{
							OFFSET 11.766610 0.000004 -0.000002
							CHANNELS 3 Zrotation Yrotation Xrotation
							End Site
							{
								OFFSET 0.000000 0.000000 0.000000
							}
						}
					}
					JOINT LeftShoulder
					{
						OFFSET 19.745901 -1.480358 6.000100
						CHANNELS 3 Zrotation Yrotation Xrotation
						JOINT LeftArm
						{
							OFFSET 11.284128 -0.000004 -0.000015
							CHANNELS 3 Zrotation Yrotation Xrotation
							JOINT LeftForeArm
							{
								OFFSET 33.000053 0.000025 0.000029
								CHANNELS 3 Zrotation Yrotation Xrotation
								JOINT LeftHand
								{
									OFFSET 25.200005 0.000009 -0.000002
									CHANNELS 3 Zrotation Yrotation Xrotation
									End Site
									{
										OFFSET 0.000000 0.000000 0.000000
									}
								}
							}
						}
					}
					JOINT RightShoulder
					{
						OFFSET 19.746098 -1.480389 -6.000077
						CHANNELS 3 Zrotation Yrotation Xrotation
						JOINT RightArm
						{
							OFFSET 11.284138 -0.000023 -0.000010
							CHANNELS 3 Zrotation Yrotation Xrotation
							JOINT RightForeArm
							{
								OFFSET 33.000103 0.000022 0.000003
								CHANNELS 3 Zrotation Yrotation Xrotation
								JOINT RightHand
								{
									OFFSET 25.199776 0.000131 0.000429
									CHANNELS 3 Zrotation Yrotation Xrotation
									End Site
									{
										OFFSET 0.000000 0.000000 0.000000
									}
								}
							}
						}
					}
				}
			}
		}
	}
}
MOTION
Frames: 11
Frame Time: 0.016667
120.079726 0.000000 487.311836 0.000000 89.207706 0.000000 0.731777 89.959068 1.278679 95.977155 4.420423 177.895278 165.423876 -4.405316 -178.149734 -73.610280 4.888949 -6.766258 84.443076 3.753921 -3.852220 21.454551 0.003086 0.000004 177.457030 -10.876403 -176.654961 -24.208521 2.150727 11.060626 86.453911 -8.216009 -2.885695 21.454558 -0.003101 -0.000018 8.595647 1.217320 0.196564 7.184997 2.420034 0.468244 6.866590 2.422948 0.453621 -12.781541 -1.218549 -2.349565 -3.165627 2.244105 -3.248526 172.745811 -71.172358 6.174736 -11.692679 54.739917 48.854016 -25.133779 -15.134080 1.152772 15.744153 -4.029275 -6.946653 144.403571 69.187389 -35.429224 -9.473424 -52.662761 -35.912246 -37.119389 22.265677 -1.883579 14.598571 7.177526 -4.451796 
120.297156 0.000000 485.431178 0.000000 88.170213 0.000000 0.588547 89.977599 1.287732 95.953437 4.284829 178.438727 162.949920 -3.642079 -177.583904 -71.122572 4.492338 -5.809481 84.393186 2.820613 -5.357084 21.454558 0.003092 -0.000003 178.855282 -10.799692 -176.762573 -23.662807 2.279420 10.661500 86.941171 -7.919715 -2.894459 21.454558 -0.003100 -0.000016 8.633343 1.154825 0.323349 7.262467 2.287058 0.718497 6.944124 2.291506 0.704663 -12.875367 -1.589831 -2.180572 -3.298932 2.317212 -3.250474 173.405221 -71.338842 5.490290 -10.344514 54.493141 49.870440 -26.263339 -15.401179 1.189618 15.302392 -4.753972 -7.927111 144.009191 69.449773 -35.813027 -10.595600 -52.155565 -34.196458 -39.899547 22.841857 -1.990424 13.942997 7.981899 -5.472702 
120.533618 0.000000 483.528250 0.000000 87.177064 0.000000 0.464828 89.929237 1.334307 95.785936 4.276024 178.940111 160.538938 -3.059798 -177.534143 -68.013452 4.354019 -4.747343 83.966909 2.041263 -5.446547 21.454558 0.003092 -0.000003 -179.870737 -10.869292 -176.901804 -23.150706 2.409141 10.302416 87.469785 -7.653220 -2.913576 21.454558 -0.003106 -0.000016 8.623433 1.119950 0.442734 7.244576 2.209988 0.954714 6.926276 2.215853 0.941343 -12.766000 -1.902062 -2.032544 -3.647393 2.390571 -3.254171 173.975314 -71.349171 4.902880 -8.775193 54.145243 51.041162 -27.502347 -15.765379 1.232546 15.175576 -5.353959 -8.664931 143.760098 69.497766 -36.064175 -11.369004 -51.392262 -32.466900 -42.943079 23.138282 -2.101628 13.481108 8.462012 -7.160710 
120.787935 0.000000 481.604201 0.000000 86.228906 0.000000 0.363385 89.811394 1.411344 95.569112 4.372027 179.409015 158.345617 -2.690797 -177.623141 -64.321545 4.147214 -3.744196 83.370296 1.409251 -5.033111 21.454554 0.003089 0.000000 -178.637066 -11.062607 -177.109243 -22.688227 2.534336 10.001600 88.059203 -7.424588 -2.928806 21.454558 -0.003112 -0.000017 8.593603 1.106996 0.552084 7.186783 2.177592 1.171889 6.868513 2.184749 1.158716 -12.557282 -2.168020 -1.890805 -4.087660 2.483104 -3.251717 174.421666 -71.258129 4.445922 -7.128396 53.742503 52.176202 -28.772229 -16.166706 1.280463 15.184395 -5.908998 -9.224729 143.560381 69.446510 -36.272292 -11.986522 -50.535872 -30.735239 -46.007684 23.243642 -2.204685 13.109145 8.763688 -8.987340 
121.058931 0.000000 479.660178 0.000000 85.326162 0.000000 0.286419 89.621483 1.511754 95.395779 4.546065 179.854862 156.533620 -2.537295 -177.472794 -60.092960 3.569402 -3.002213 82.835625 0.908244 -5.034576 21.454551 0.003089 0.000002 -177.359317 -11.355190 -177.420680 -22.291280 2.649109 9.777149 88.729026 -7.242158 -2.926041 21.454558 -0.003112 -0.000017 8.571506 1.110144 0.648721 7.144414 2.178159 1.364815 6.826169 2.186473 1.351637 -12.353329 -2.399981 -1.739428 -4.496343 2.613859 -3.235168 174.719886 -71.120530 4.142816 -5.534325 53.340114 53.099026 -29.993204 -16.545428 1.328562 15.152853 -6.504423 -9.667094 143.306806 69.410504 -36.534325 -12.655747 -49.742098 -29.002075 -48.852763 23.247406 -2.294965 12.723807 9.035247 -10.427630 
121.345429 0.000000 477.697329 0.000000 84.469072 0.000000 0.231283 89.362135 1.628418 95.314737 4.762579 -179.719717 155.176624 -2.555409 -176.931294 -55.404731 2.523616 -2.682624 82.486895 0.519480 -5.963930 21.454551 0.003093 0.000000 -175.991487 -11.714267 -177.861679 -21.963068 2.744617 9.638472 89.490600 -7.110146 -2.895963 21.454558 -0.003103 -0.000016 8.573441 1.122214 0.730974 7.150013 2.197168 1.530002 6.831793 2.206497 1.516699 -12.241706 -2.604259 -1.567543 -4.779142 2.781510 -3.195350 174.896453 -70.989959 3.964762 -4.103790 52.998835 53.689109 -31.092035 -16.850284 1.370041 14.953071 -7.206939 -10.017058 142.934279 69.469412 -36.910714 -13.541713 -49.112919 -27.279280 -51.290272 23.225116 -2.375659 12.232897 9.413134 -11.128024 
121.646251 0.000000 475.716800 0.000000 83.657708 0.000000 0.177519 89.056862 1.754576 95.202738 4.967397 -179.341302 153.980863 -2.604896 -176.746458 -50.454439 1.606421 -2.580238 81.951395 0.276119 -6.700042 21.454553 0.003096 -0.000002 -174.643935 -12.082600 -178.415428 -21.656271 2.801145 9.560593 90.321881 -7.014980 -2.847587 21.454558 -0.003099 -0.000016 8.570377 1.130964 0.801206 7.145366 2.210356 1.670863 6.827167 2.220553 1.657478 -12.242933 -2.764679 -1.387455 -4.958361 2.903016 -3.118712 175.154805 -70.915310 3.700694 -2.917567 52.772755 54.002530 -32.025687 -17.062629 1.402847 14.640690 -7.997259 -10.169569 142.548095 69.566075 -37.298049 -14.597202 -48.564717 -25.651492 -53.327780 23.195608 -2.446175 11.600181 9.980980 -11.409412 
121.960220 0.000000 473.719741 0.000000 82.891993 0.000000 0.107964 88.727555 1.883707 94.945759 5.124638 -179.039923 152.702171 -2.597907 -177.602576 -45.387764 1.321941 -2.387934 80.905218 0.203140 -6.216042 21.454553 0.003092 -0.000001 -173.413105 -12.406551 -179.040902 -21.320762 2.810536 9.501740 91.191355 -6.932654 -2.793277 21.454557 -0.003110 -0.000018 8.534128 1.127169 0.863387 7.073964 2.199528 1.794218 6.755783 2.210464 1.780914 -12.352813 -2.869599 -1.212135 -5.063873 2.904564 -2.995710 175.645280 -70.921410 3.194928 -2.008259 52.688212 54.159434 -32.769943 -17.193346 1.427399 14.314020 -8.797938 -10.042582 142.248340 69.627862 -37.599616 -15.712570 -48.009077 -24.192898 -55.026296 23.159181 -2.505230 10.866387 10.741382 -11.710379 
122.286161 0.000000 471.707299 0.000000 82.171717 0.000000 0.037118 88.368736 2.005573 94.646234 5.268607 -178.828468 151.653216 -2.633689 -179.010201 -40.017319 1.275501 -2.165601 79.767272 0.186289 -5.504534 21.454553 0.003089 0.000001 -172.177348 -12.659693 -179.656665 -20.945400 2.820288 9.387689 92.063231 -6.816179 -2.740782 21.454558 -0.003122 -0.000019 8.485297 1.118419 0.923910 6.977243 2.179194 1.913733 6.659085 2.190843 1.900560 -12.536213 -2.948214 -1.033313 -5.038628 2.830710 -2.838193 176.132588 -70.946388 2.691878 -1.240573 52.677911 54.361470 -33.345894 -17.339192 1.448982 14.074190 -9.394958 -9.772064 141.917696 69.652702 -37.935524 -16.774994 -47.502571 -22.833327 -56.469882 23.098919 -2.554641 10.339368 11.445289 -12.251301 
122.622894 0.000000 469.680621 0.000000 81.496559 0.000000 -0.022416 87.978899 2.109531 94.424371 5.421917 -178.708594 151.151157 -2.776797 179.660998 -34.197387 0.986882 -2.091303 78.984945 0.077994 -5.668483 21.454553 0.003093 -0.000000 -170.801983 -12.815611 179.807127 -20.515904 2.876301 9.162842 92.891499 -6.630015 -2.691141 21.454559 -0.003122 -0.000018 8.449889 1.111235 0.986869 6.907414 2.161691 2.038491 6.589292 2.174102 2.025402 -12.752628 -3.039377 -0.838967 -4.854182 2.751012 -2.665662 176.372230 -70.926302 2.445398 -0.503690 52.666026 54.755398 -33.771066 -17.583779 1.473749 13.990463 -9.603071 -9.543875 141.427086 69.650692 -38.436857 -17.709550 -47.120354 -21.482625 -57.719107 23.005034 -2.595533 10.260255 11.857044 -13.074195 
122.969245 0.000000 467.640856 0.000000 80.866095 0.000000 -0.095935 87.599808 2.191169 94.248657 5.508856 -178.654620 150.960458 -2.934295 178.418338 -28.280401 0.404287 -2.114480 78.373496 -0.065384 -6.247770 21.454553 0.003096 -0.000002 -169.316319 -12.822197 179.338160 -19.965918 2.959534 8.876442 93.593897 -6.408116 -2.627788 21.454560 -0.003116 -0.000017 8.426647 1.091244 1.044793 6.861538 2.118736 2.152647 6.543455 2.131846 2.139798 -12.970253 -3.179288 -0.623282 -4.684001 2.718893 -2.504634 176.494807 -70.864241 2.320725 0.063227 52.648387 55.205388 -34.000524 -17.872891 1.497879 13.976426 -9.478966 -9.510855 140.827188 69.614501 -39.052376 -18.567119 -46.866442 -20.147145 -58.719012 22.914521 -2.627227 10.323156 12.027297 -13.773345 
